HIERARCHY
ROOT Hips
{
	OFFSET -3.958830 18.904000 13.208200
	CHANNELS 6 Xposition Yposition Zposition Zrotation Yrotation Xrotation 
	JOINT LHipJoint
	{
		OFFSET 0.000000 0.000000 0.000000
		CHANNELS 3 Zrotation Yrotation Xrotation
		JOINT LeftUpLeg
		{
			OFFSET 1.800000 -1.400000 0.085000
			CHANNELS 3 Zrotation Yrotation Xrotation
			JOINT LeftLeg
			{
				OFFSET 2.215000 -6.000000 0.000000
				CHANNELS 3 Zrotation Yrotation Xrotation
				JOINT LeftFoot
				{
					OFFSET 2.500000 -6.900000 0.000000
					CHANNELS 3 Zrotation Yrotation Xrotation
					JOINT LeftToeBase
					{
						OFFSET 0.200000 -0.500000 1.950000
						CHANNELS 3 Zrotation Yrotation Xrotation
						End Site
						{
							OFFSET 0.000000 0.000000 0.000000
						}
					}
				}
			}
		}
	}
	JOINT RHipJoint
	{
		OFFSET 0.000000 0.000000 0.000000
		CHANNELS 3 Zrotation Yrotation Xrotation
		JOINT RightUpLeg
		{
			OFFSET -1.800000 -1.400000 0.085000
			CHANNELS 3 Zrotation Yrotation Xrotation
			JOINT RightLeg
			{
				OFFSET -2.215000 -6.000000 0.000000
				CHANNELS 3 Zrotation Yrotation Xrotation
				JOINT RightFoot
				{
					OFFSET -2.500000 -6.900000 0.000000
					CHANNELS 3 Zrotation Yrotation Xrotation
					JOINT RightToeBase
					{
						OFFSET -0.200000 -0.500000 1.950000
						CHANNELS 3 Zrotation Yrotation Xrotation
						End Site
						{
							OFFSET 0.000000 0.000000 0.000000
						}
					}
				}
			}
		}
	}
	JOINT LowerBack
	{
		OFFSET 0.000000 0.000000 0.000000
		CHANNELS 3 Zrotation Yrotation Xrotation
		JOINT Spine
		{
			OFFSET -0.087000 1.940000 -0.288900
			CHANNELS 3 Zrotation Yrotation Xrotation
			JOINT Spine1
			{
				OFFSET 0.000000 1.950000 0.060000
				CHANNELS 3 Zrotation Yrotation Xrotation
				JOINT Neck
				{
					OFFSET 0.000000 0.000000 0.000000
					CHANNELS 3 Zrotation Yrotation Xrotation
					JOINT Neck1
					{
						OFFSET 0.000000 1.600000 0.340000
						CHANNELS 3 Zrotation Yrotation Xrotation
						JOINT Head
						{
							OFFSET 0.000000 1.667000 -0.240000
							CHANNELS 3 Zrotation Yrotation Xrotation
							End Site
							{
								OFFSET 0.000000 0.000000 0.000000
							}
						}
					}
				}
				JOINT LeftShoulder
				{
					OFFSET 0.000000 0.000000 0.000000
					CHANNELS 3 Zrotation Yrotation Xrotation
					JOINT LeftArm
					{
						OFFSET 2.700000 1.550000 -0.730000
						CHANNELS 3 Zrotation Yrotation Xrotation
						JOINT LeftForeArm
						{
							OFFSET 5.450000 0.000000 0.000000
							CHANNELS 3 Zrotation Yrotation Xrotation
							JOINT LeftHand
							{
								OFFSET 3.450000 0.000000 0.000000
								CHANNELS 3 Zrotation Yrotation Xrotation
								JOINT LeftHandIndex1
								{
									OFFSET 0.750000 0.000000 0.000000
									CHANNELS 3 Zrotation Yrotation Xrotation
									End Site
									{
										OFFSET 0.000000 0.000000 0.000000
									}
								}
							}
						}
					}
				}
				JOINT RightShoulder
				{
					OFFSET 0.000000 0.000000 0.000000
					CHANNELS 3 Zrotation Yrotation Xrotation
					JOINT RightArm
					{
						OFFSET -2.700000 1.550000 -0.730000
						CHANNELS 3 Zrotation Yrotation Xrotation
						JOINT RightForeArm
						{
							OFFSET -5.450000 0.000000 0.000000
							CHANNELS 3 Zrotation Yrotation Xrotation
							JOINT RightHand
							{
								OFFSET -3.450000 0.000000 0.000000
								CHANNELS 3 Zrotation Yrotation Xrotation
								JOINT RightHandIndex1
								{
									OFFSET -0.750000 0.000000 0.000000
									CHANNELS 3 Zrotation Yrotation Xrotation
									End Site
									{
										OFFSET 0.000000 0.000000 0.000000
									}
								}
							}
						}
					}
				}
			}
		}
	}
}
MOTION
Frames: 10
Frame Time: 0.016667
-0.350110 16.991660 -0.763810 -4.641374 6.331988 -18.210259 -15.034610 13.335128 3.523024 9.807356 1.347727 16.663756 -9.039860 6.595117 1.280172 -0.117096 7.002358 2.677105 -0.134650 -0.716940 -0.225920 18.408470 -10.618923 2.968294 1.338653 -1.347795 1.305638 2.721898 -5.573546 7.955341 -0.790199 -3.998376 3.134928 -0.395720 0.817930 0.588400 -4.064268 -2.156947 -7.843966 18.342803 -12.988419 41.454829 -15.835380 -5.712573 8.904835 5.601472 -8.290589 -14.732109 -16.507591 1.514735 27.525334 1.741710 -2.494640 -41.734480 -2.698680 -30.213224 5.757321 29.061961 -8.356147 -14.414283 88.575977 -16.866520 -18.377846 -4.502243 2.481342 1.330000 0.075330 0.152890 0.318580 -8.390773 35.650546 10.256442 -26.069617 3.009120 -21.662804 -89.430917 17.791868 -20.197090 2.302033 -1.327294 -0.611220 0.673050 0.527780 -0.110680 
-0.352030 16.984990 -0.730230 -4.763561 6.632440 -18.251987 -15.025737 13.300629 3.527232 10.131312 1.304071 17.004363 -9.096853 6.610452 1.010777 -0.084482 7.050385 2.667738 -0.149650 -0.736540 -0.243690 18.422318 -10.620788 2.958109 1.417001 -1.375964 1.440643 2.829998 -5.645192 8.297599 -0.794159 -4.041399 3.120479 -0.414280 0.830290 0.602480 -4.100960 -2.103153 -7.842577 18.697992 -13.199680 41.304618 -15.995725 -5.987177 9.074650 5.559654 -8.333959 -14.570909 -16.612137 1.549455 27.508980 1.922570 -2.520870 -41.465350 -3.107185 -29.690827 5.699617 28.361147 -7.996166 -14.175027 92.163233 -17.352226 -19.974627 -4.490964 2.502296 1.319480 0.082950 0.146480 0.321630 -7.898614 34.889205 10.279537 -25.171065 2.349860 -21.264514 -94.872893 18.562953 -23.207821 2.259239 -1.352956 -0.602570 0.657010 0.533620 -0.101010 
-0.355670 16.976590 -0.693070 -4.856950 6.904919 -18.338302 -15.019973 13.286043 3.522733 10.429893 1.259517 17.310807 -8.969850 6.629218 0.937936 -0.064138 7.090024 2.659042 -0.166610 -0.763010 -0.259320 18.430922 -10.619716 2.953161 1.491993 -1.409830 1.638163 2.875547 -5.710393 8.589618 -0.796719 -4.083140 3.109332 -0.434560 0.838620 0.613310 -4.125624 -2.082433 -7.839308 18.929856 -13.355719 41.086513 -16.100166 -6.263291 9.283339 5.547665 -8.364410 -14.445280 -16.748346 1.572761 27.669798 2.014860 -2.569870 -41.339590 -3.266258 -29.065813 5.632460 27.539965 -7.566294 -13.884423 95.567611 -18.011197 -21.851517 -4.476837 2.517648 1.316310 0.088220 0.138590 0.320570 -7.710872 34.056614 10.319997 -24.076721 1.705355 -20.843819 -99.977964 19.336093 -26.568092 2.210321 -1.375627 -0.599280 0.642080 0.542780 -0.098190 
-0.359850 16.967090 -0.652070 -4.922348 6.926586 -18.441899 -15.011609 13.276820 3.523027 10.695585 1.227840 17.686758 -8.861522 6.671805 0.940733 -0.032478 7.130254 2.653838 -0.190810 -0.798590 -0.276610 18.438538 -10.621655 2.957688 1.574710 -1.442406 1.827319 2.985441 -5.782962 8.805410 -0.797665 -4.116551 3.109978 -0.465380 0.844960 0.618450 -4.147990 -2.062209 -7.847696 19.150332 -13.492289 40.949184 -16.349549 -6.443012 9.103019 5.636519 -8.317906 -14.490331 -16.900378 1.671821 28.315843 1.937020 -2.553030 -41.077210 -3.462599 -28.363516 5.602030 26.683557 -6.930756 -13.392212 98.883152 -19.121117 -24.189518 -4.447945 2.520647 1.316510 0.090790 0.131760 0.319440 -7.711188 33.260766 10.452840 -22.892550 1.035829 -20.308514 -104.501966 20.176889 -30.090268 2.164888 -1.388303 -0.597140 0.628060 0.550270 -0.096350 
-0.364580 16.960970 -0.610290 -4.933314 6.837709 -18.669831 -15.011720 13.297369 3.528367 10.985082 1.212846 18.129078 -8.847719 6.770728 1.124591 0.010227 7.183616 2.645028 -0.220210 -0.838210 -0.296850 18.434486 -10.604447 2.967552 1.584512 -1.508070 2.192763 3.117063 -5.859068 8.872663 -0.803659 -4.149218 3.115647 -0.503970 0.847930 0.617170 -4.140825 -2.122054 -7.864283 19.085823 -13.559446 41.045055 -16.402947 -6.617617 8.754944 5.736783 -8.318863 -14.688331 -17.330260 1.987839 29.389788 2.048280 -2.414840 -41.005880 -3.421276 -27.622287 5.656777 25.678821 -5.960020 -12.853772 102.238543 -20.334417 -26.913182 -4.412078 2.519322 1.323510 0.086040 0.128300 0.316560 -7.953778 32.559780 10.632431 -21.803662 0.387464 -19.759040 -108.412650 21.005589 -33.636180 2.124740 -1.389657 -0.595740 0.616340 0.557780 -0.094620 
-0.370900 16.957850 -0.567160 -4.860106 6.740642 -19.048233 -15.012094 13.329290 3.531084 11.232497 1.216112 18.674593 -8.736839 6.889639 1.471995 0.064431 7.228185 2.634314 -0.247130 -0.869970 -0.313900 18.426932 -10.589061 2.984268 1.458082 -1.631730 2.779575 3.264721 -5.935323 8.756988 -0.817937 -4.190069 3.116414 -0.541440 0.840550 0.611850 -4.128629 -2.197623 -7.885262 18.776993 -13.563652 41.335218 -16.340491 -6.784907 8.296814 5.792127 -8.354936 -14.999061 -17.973135 2.457935 30.795476 2.586150 -2.217410 -41.006020 -3.265790 -26.906336 5.786714 24.683970 -4.720293 -12.255313 105.502486 -21.746562 -30.073599 -4.365291 2.520825 1.329120 0.072400 0.132970 0.312130 -8.202967 31.957132 10.861194 -21.078750 -0.515001 -19.090643 -111.845254 22.066895 -37.363997 2.098403 -1.382897 -0.588460 0.601280 0.558940 -0.090750 
-0.378100 16.954030 -0.523580 -4.772584 6.631122 -19.462245 -15.023610 13.393294 3.524826 11.423765 1.227672 19.140623 -8.506394 7.025821 2.107058 0.102855 7.277006 2.622165 -0.271460 -0.896570 -0.331180 18.406515 -10.556724 3.008407 1.326678 -1.751661 3.432209 3.441034 -6.005653 8.524840 -0.833859 -4.233855 3.114481 -0.569600 0.841080 0.608190 -4.082947 -2.346065 -7.903235 18.306309 -13.463182 41.636794 -16.106468 -6.884575 7.895795 5.897215 -8.349474 -15.319686 -18.532213 2.948179 32.161552 2.890570 -2.038940 -40.771940 -3.002204 -26.196603 5.949316 23.863956 -3.245895 -11.594998 108.651853 -23.188005 -33.536198 -4.328959 2.516035 1.336270 0.065610 0.138160 0.310760 -8.639303 31.375357 11.065606 -20.744232 -1.778354 -18.343331 -114.598103 23.407487 -41.172321 2.070859 -1.371609 -0.587110 0.597080 0.562850 -0.086170 
-0.387670 16.954170 -0.481680 -4.674255 6.440954 -20.086494 -15.044960 13.470017 3.514805 11.635566 1.250178 19.724232 -8.218644 7.182784 2.880308 0.134823 7.343573 2.599727 -0.287910 -0.913280 -0.344580 18.377780 -10.498800 3.045519 1.196081 -1.887920 4.339811 3.708710 -6.078551 8.051914 -0.861882 -4.294780 3.099413 -0.589640 0.838200 0.605980 -4.009713 -2.549709 -7.922696 17.618282 -13.256789 42.324345 -15.646865 -6.903085 7.513570 5.953882 -8.441172 -15.526591 -19.261174 3.426428 33.363268 3.450640 -1.914400 -41.136960 -2.613668 -25.341597 6.036416 23.404939 -1.766563 -10.904562 111.758232 -24.618948 -37.307421 -4.286590 2.515728 1.349470 0.053660 0.146660 0.307790 -9.060425 30.693161 11.170879 -20.765050 -3.359310 -17.595821 -117.075967 24.628388 -44.846876 2.043252 -1.364691 -0.586250 0.595590 0.568360 -0.083290 
-0.399770 16.955110 -0.439140 -4.423727 6.083850 -20.649875 -15.063634 13.538532 3.496925 11.669150 1.307312 20.145833 -7.974631 7.344548 3.852622 0.158562 7.390518 2.577835 -0.290880 -0.915560 -0.342280 18.350596 -10.462356 3.079973 0.907696 -2.012180 5.190326 4.022499 -6.150349 7.569880 -0.893102 -4.358035 3.075089 -0.600670 0.824950 0.609320 -3.938816 -2.708564 -7.939351 16.702713 -12.792330 42.886504 -15.145946 -6.717259 7.334365 5.952265 -8.383038 -15.584415 -19.600767 3.809068 34.569541 3.911120 -1.717400 -41.690520 -1.967846 -24.367435 6.049871 23.273623 -0.384385 -10.178273 114.843631 -25.778437 -41.078550 -4.235992 2.531094 1.360330 0.039580 0.161150 0.302420 -9.625026 29.779203 11.170366 -20.931173 -5.015385 -16.771796 -119.443624 25.759259 -48.519386 2.024189 -1.367552 -0.578560 0.587160 0.567270 -0.083880 
-0.415520 16.956930 -0.396510 -4.027515 5.589942 -21.197907 -15.086364 13.613152 3.476657 11.554980 1.398419 20.476849 -7.710981 7.507812 4.976659 0.162728 7.436871 2.556669 -0.287140 -0.912230 -0.335300 18.318898 -10.429344 3.111435 0.512135 -2.126592 6.043622 4.311987 -6.212936 7.078134 -0.920327 -4.426924 3.052515 -0.599470 0.815460 0.605910 -3.853487 -2.875618 -7.952827 15.498500 -12.149147 43.547090 -14.507074 -6.398154 7.066066 5.904321 -8.378592 -15.551817 -19.975355 4.167898 35.559375 4.360810 -1.558390 -42.205740 -1.187207 -23.172173 5.978274 23.328302 0.971182 -9.371213 118.105489 -26.504778 -44.753917 -4.181966 2.547100 1.374120 0.029650 0.169520 0.299390 -10.206704 28.714550 11.069255 -21.419279 -6.988122 -15.804823 -121.904534 26.746026 -52.193727 1.999811 -1.378084 -0.581800 0.588840 0.564710 -0.089780 
